<?xml version="1.0" standalone="no"?> <!DOCTYPE svg PUBLIC "-//W3C//DTD SVG 1.0//EN" "http://www.w3.org/TR/2001/REC-SVG-20010904/DTD/svg10.dtd" > <svg xmlns="http://www.w3.org/2000/svg" width="100%" height="100%">
<defs >
<font horiz-adv-x="687" ><font-face
    font-family="Ruler Stencil"
    units-per-em="1400"
    panose-1="2 11 6 4 2 2 2 2 2 4"
    ascent="1840"
    descent="-420"
    alphabetic="0" />
<missing-glyph horiz-adv-x="880" d="M160 1259Q160 1284 177 1301T220 1319H321Q346 1319 363 1302T381 1259Q381 1234 364 1217T321 1199H280V119H320Q345 119 362 102T380 59Q380 34 363 17T320 -1H220Q195 -1 178 16T160 59V1259ZM721 59Q721 34 704 17T661
-1H560Q535 -1 518 16T500 59Q500 84 517 101T560 119H601V1199H561Q536 1199 519 1216T501 1259Q501 1284 518 1301T561 1319H661Q686 1319 703 1302T721 1259V59Z" />
<glyph unicode=" " glyph-name="space" horiz-adv-x="520" />
<glyph unicode="!" glyph-name="exclam" horiz-adv-x="440" d="M160 1260Q160 1285 177 1302T220 1320Q245 1320 262 1303T280 1260V340Q280 315 263 298T220 280Q195 280 178 297T160 340V1260ZM253 160T276 137T300 80Q300 47 277 24T220 0Q187 0 164 23T140
80Q140 113 163 136T220 160Q253 160 276 137Z" />
<glyph unicode="&quot;" glyph-name="quotedbl" horiz-adv-x="440" d="M73 1393Q79 1417 101 1430Q115 1438 131 1438Q138 1438 146 1436Q170 1429 183 1408Q191 1393 191 1377Q191 1370 189 1362L158 1246Q152 1223 131 1211Q116 1202 100 1202Q93 1202 85 1204Q61
1211 49 1232Q40 1246 40 1262Q40 1270 42 1278L73 1393ZM282 1392Q288 1416 310 1429Q324 1437 340 1437Q347 1437 355 1435Q379 1428 392 1407Q400 1392 400 1376Q400 1369 398 1361L367 1245Q361 1222 340 1210Q325 1201 309 1201Q302 1201 294 1203Q270 1210
258 1231Q249 1245 249 1261Q249 1269 251 1277L282 1392Z" />
<glyph unicode="#" glyph-name="numbersign" horiz-adv-x="880" d="M220 1260Q220 1285 237 1302T280 1320Q305 1320 322 1303T340 1260V960H540V1260Q540 1285 558 1302T600 1320Q625 1320 642 1303T661 1260V960H720Q745 960 762 943T780 900Q780 875 763 858T720
840H660V780Q660 755 643 738T600 720Q575 720 558 737T540 780V840H340V780Q340 755 322 738T280 720Q255 720 238 737T220 780V840H160Q135 840 118 857T100 900Q100 925 117 942T160 960H220V1260ZM660 60Q660 35 643 18T600 0Q575 0 558 17T540 60V360H340V60Q340
35 323 18T280 0Q255 0 238 17T220 60V360H160Q135 360 118 377T100 420Q100 445 117 462T160 480H220V540Q220 565 237 582T280 600Q304 600 322 583T340 540V480H540V540Q540 564 557 582T600 600Q625 600 642 582T660 540V480H720Q745 480 762 463T780 420Q780
395 763 378T720 360H660V60Z" />
<glyph unicode="$" glyph-name="dollar" horiz-adv-x="680" d="M265 1330V1460Q265 1485 282 1502T325 1520Q350 1520 367 1503T385 1460V1338Q484 1324 552 1248Q554 1246 556 1244Q571 1226 571 1204V1201Q569 1176 551 1160Q534 1144 511 1144H508Q483 1145
464 1167Q418 1216 352 1219H341Q282 1219 237 1179Q188 1134 184 1068V1059Q184 920 387 697Q586 477 586 268Q586 257 585 246Q578 129 492 51Q443 7 385 -10V-139Q385 -164 368 -181T325 -199Q300 -199 283 -182T265 -139V-19Q166 -5 97 72Q95 74 94 76Q78 94
78 116V119Q80 144 98 161Q115 176 138 176H141Q166 174 186 153Q231 104 297 100H305Q366 100 412 142Q461 186 465 252V265Q465 430 264 652Q64 873 64 1058V1074Q71 1191 157 1269Q206 1313 265 1330Z" />
<glyph unicode="%" glyph-name="percent" horiz-adv-x="1800" d="M493 1463Q484 1467 476 1475Q459 1492 459 1517Q459 1542 476 1559T519 1577Q539 1577 555 1566Q577 1551 597 1531Q679 1449 679 1333V1022Q679 906 597 824Q575 802 551 786Q536 777 519 777Q494
777 477 795T459 837Q459 862 476 880Q480 884 485 887Q499 896 512 909Q559 956 559 1022V1333Q559 1399 512 1446Q502 1455 493 1463ZM306 891Q315 887 323 880Q340 862 340 837Q340 812 323 795T280 777Q260 777 244 788Q222 803 202 823Q120 905 120 1021V1332Q120
1448 202 1530Q224 1552 248 1568Q262 1577 280 1577Q305 1577 322 1559T340 1517Q340 1492 323 1475Q318 1470 314 1467Q300 1458 287 1445Q240 1398 240 1332V1021Q240 955 287 908Q296 899 306 891ZM1493 686Q1484 690 1476 698Q1459 715 1459 740Q1459 765
1476 782T1519 800Q1539 800 1555 789Q1577 774 1597 754Q1679 672 1679 556V245Q1679 129 1597 47Q1575 25 1551 9Q1536 0 1519 0Q1494 0 1477 18T1459 60Q1459 85 1476 103Q1480 107 1485 110Q1499 119 1512 132Q1559 179 1559 245V556Q1559 622 1512 669Q1502
678 1493 686ZM1306 114Q1315 110 1323 103Q1340 85 1340 60Q1340 35 1323 18T1280 0Q1260 0 1244 11Q1222 26 1202 46Q1120 128 1120 244V555Q1120 671 1202 753Q1224 775 1248 791Q1262 800 1280 800Q1305 800 1322 782T1340 740Q1340 715 1323 698Q1318 693
1314 690Q1300 681 1287 668Q1240 621 1240 555V244Q1240 178 1287 131Q1296 122 1306 114ZM971 1266Q976 1286 991 1303Q1008 1320 1033 1320Q1058 1320 1074 1303T1091 1260Q1091 1255 1090 1250L811 55Q807 34 791 18Q773 0 748 0Q723 0 707 17T691 60Q691 68
693 76L971 1266Z" />
<glyph unicode="&amp;" glyph-name="ampersand" horiz-adv-x="960" d="M644 869Q638 861 632 855Q614 837 589 837Q564 837 547 854T529 897Q529 918 547 940Q570 970 579 988Q599 1020 599 1060Q599 1118 558 1159T459 1200Q401 1200 361 1159T320 1060Q320 1031
331 1001Q355 937 588 547Q596 533 596 517Q596 492 579 475T536 457Q512 457 494 475Q485 483 480 494L423 595L285 421Q241 370 239 300Q239 225 291 173T419 120Q494 120 547 173Q569 195 581 221L610 277L732 571Q737 583 747 593Q764 610 789 610Q814 610
831 593T849 550Q849 534 841 520L738 283L847 91Q856 77 856 59Q856 34 839 17T796 -1Q771 -1 754 17Q744 26 739 38L678 146Q659 116 631 88Q543 0 419 0Q295 0 207 88T119 300Q119 408 186 488L359 708Q252 881 224 946Q199 998 199 1060Q199 1168 275 1244T459
1320Q567 1320 643 1244T719 1060Q719 978 675 914Q664 897 644 869Z" />
<glyph unicode="&apos;" glyph-name="quotesingle" horiz-adv-x="220" d="M73 1393Q79 1417 101 1430Q115 1438 131 1438Q138 1438 146 1436Q170 1429 183 1408Q191 1393 191 1377Q191 1370 189 1362L158 1246Q152 1223 131 1211Q116 1202 100 1202Q93 1202 85
1204Q61 1211 49 1232Q40 1246 40 1262Q40 1270 42 1278L73 1393Z" />
<glyph unicode="(" glyph-name="parenleft" horiz-adv-x="400" d="M226 1408T238 1423Q255 1440 280 1440Q305 1440 322 1423T340 1380Q340 1370 337 1361Q198 1011 198 661Q198 311 337 -40Q340 -49 340 -59Q340 -84 323 -101T280 -119Q255 -119 238 -101Q227
-88 220 -69Q80 296 80 661Q80 1026 220 1390Q226 1408 238 1423Z" />
<glyph unicode=")" glyph-name="parenright" horiz-adv-x="400" d="M175 1408T163 1423Q146 1440 121 1440Q96 1440 79 1423T61 1380Q61 1370 64 1361Q203 1011 203 661Q203 311 64 -40Q61 -49 61 -59Q61 -84 78 -101T121 -119Q146 -119 163 -101Q174 -88 181
-69Q321 296 321 661Q321 1026 181 1390Q175 1408 163 1423Z" />
<glyph unicode="*" glyph-name="asterisk" horiz-adv-x="620" d="M207 1168L122 1196Q99 1204 88 1226Q81 1239 81 1253Q81 1262 84 1272Q91 1295 114 1307Q127 1313 140 1313Q150 1313 159 1310L251 1280V1378Q251 1403 268 1420T311 1438Q336 1438 353 1421T371
1378V1281L464 1311Q473 1314 483 1314Q496 1314 510 1308Q532 1296 539 1273Q542 1263 542 1254Q542 1240 536 1227Q524 1205 501 1197L413 1169L473 1098Q487 1082 487 1061V1055Q484 1030 465 1014Q448 1000 427 1000H422Q397 1002 381 1021L311 1104L241 1021Q225
1002 201 1000H195Q174 1000 157 1014Q136 1031 135 1062Q135 1082 148 1098L207 1168Z" />
<glyph unicode="+" glyph-name="plus" horiz-adv-x="680" d="M280 560H141Q116 560 99 577T81 620Q81 645 98 662T141 680H280V820Q280 845 297 862T340 880Q365 880 382 863T400 820V680H541Q566 680 583 663T601 620Q601 595 584 578T541 560H400V420Q400 395
383 378T340 360Q315 360 298 377T280 420V560Z" />
<glyph unicode="," glyph-name="comma" horiz-adv-x="240" d="M73 76Q79 100 101 113Q115 121 131 121Q138 121 146 119Q170 112 183 91Q191 76 191 60Q191 53 189 45L158 -71Q152 -94 131 -106Q116 -115 100 -115Q93 -115 85 -113Q61 -106 49 -85Q40 -71 40 -55Q40
-47 42 -39L73 76Z" />
<glyph unicode="-" glyph-name="hyphen" horiz-adv-x="520" d="M139 600Q114 600 97 617T79 660Q79 685 96 702T139 720H380Q405 720 422 703T440 660Q440 635 423 618T380 600H139Z" />
<glyph unicode="." glyph-name="period" horiz-adv-x="320" d="M193 160T216 137T240 80Q240 47 217 24T160 0Q127 0 104 23T80 80Q80 113 103 136T160 160Q193 160 216 137Z" />
<glyph unicode="/" glyph-name="slash" horiz-adv-x="520" d="M386 1291T398 1303Q416 1320 440 1320Q465 1320 482 1303T500 1260Q500 1249 497 1240L137 41Q133 28 123 18Q105 0 80 0Q55 0 38 18T20 60Q20 71 23 80L382 1276Q386 1291 398 1303Z" />
<glyph unicode="0" glyph-name="zero" horiz-adv-x="800" d="M140 539Q140 564 157 581T200 599Q225 599 242 582T260 539V260Q260 194 307 147T420 100Q486 100 533 147T580 260V539Q580 564 597 581T640 599Q665 599 682 582T700 539V260Q700 144 618 62T420
-20Q304 -20 222 62T140 260V539ZM700 782Q700 757 683 740T640 722Q615 722 598 739T580 782V1061Q580 1127 533 1174T420 1221Q354 1221 307 1174T260 1061V782Q260 757 243 740T200 722Q175 722 158 739T140 782V1061Q140 1177 222 1259T420 1341Q536 1341 618
1259T700 1061V782Z" />
<glyph unicode="1" glyph-name="one" horiz-adv-x="619" d="M121 0Q96 0 79 17T61 60Q61 85 78 102T121 120H261V1201H122Q97 1201 80 1218T62 1261Q62 1286 79 1303T122 1321H322Q346 1321 364 1304Q381 1286 381 1261V120H482Q507 120 524 103T542 60Q542 35
525 18T482 0H121Z" />
<glyph unicode="2" glyph-name="two" horiz-adv-x="740" d="M264 1170Q246 1152 221 1152Q196 1152 179 1169T161 1212Q161 1236 179 1254Q264 1340 380 1340Q496 1340 578 1258T660 1060V1059Q660 878 440 659T220 280V120H600Q625 120 642 103T660 60Q660 36
643 18T600 0H160Q135 0 118 18T100 60V280Q100 490 320 709T540 1059Q540 1125 494 1172T380 1219Q314 1219 264 1170Z" />
<glyph unicode="3" glyph-name="three" horiz-adv-x="720" d="M361 601Q336 601 319 619T301 661Q301 686 318 703T361 721H362Q412 721 446 756T481 841V1061Q481 1126 435 1173T321 1220Q256 1220 205 1171Q187 1153 162 1153Q137 1153 120 1170T102 1213Q102
1237 120 1255Q205 1341 321 1341Q437 1341 519 1259T601 1061V841Q601 742 531 672Q525 666 519 661Q525 656 531 651Q601 580 601 481V260Q601 144 519 62T321 -20Q205 -20 120 66Q102 84 102 108Q102 133 119 150T162 168Q187 168 205 151Q255 101 321 101Q388
101 434 148T481 260V481Q481 531 447 566T362 601H361Z" />
<glyph unicode="4" glyph-name="four" horiz-adv-x="820" d="M560 1019Q560 1044 577 1061T620 1079Q645 1079 662 1062T680 1019V59Q680 34 663 17T620 -1Q595 -1 578 16T560 59V359H160Q135 359 118 377T100 419Q100 429 103 437L260 1258Q263 1285 279 1302T320
1320Q345 1320 362 1303T380 1260Q380 1250 378 1241L233 479H560V1019Z" />
<glyph unicode="5" glyph-name="five" horiz-adv-x="760" d="M260 904Q306 921 359 921Q475 921 557 839T639 641V259Q638 143 556 61T358 -21Q242 -21 159 64Q141 82 141 106Q141 131 158 148T201 166Q226 166 244 149Q292 100 358 100Q425 100 471 147T519 260V641Q519
706 473 753T359 800Q294 800 243 751Q225 733 200 733Q175 733 158 751Q141 767 140 791V1261Q140 1286 157 1303T200 1321H580Q605 1321 622 1304T640 1261Q640 1237 623 1219T580 1201H260V904Z" />
<glyph unicode="6" glyph-name="six" horiz-adv-x="800" d="M393 722T378 738Q360 755 360 780Q360 804 377 822T426 840Q525 832 598 759Q680 677 680 561V259Q680 143 598 61T400 -21Q284 -21 202 61T120 259V1059H121V1060Q121 1176 203 1258T401 1340Q517
1340 599 1258Q618 1237 618 1213Q618 1188 601 1171T558 1153Q533 1153 514 1172Q467 1219 401 1219Q334 1219 288 1172T241 1059H240V259Q240 193 287 146T400 99Q466 99 513 146T560 259V561Q560 627 513 674Q471 716 414 720Q393 722 378 738Z" />
<glyph unicode="7" glyph-name="seven" horiz-adv-x="580" d="M460 1320Q484 1320 502 1303Q519 1285 519 1260Q519 1252 517 1244H518L258 44Q254 30 244 18Q226 0 201 0Q176 0 159 18T141 60Q141 70 143 79L386 1200H100Q75 1200 58 1217T40 1260Q40 1285 57
1302T100 1320H460Z" />
<glyph unicode="8" glyph-name="eight" horiz-adv-x="801" d="M460 690Q460 715 477 733Q481 737 486 740Q500 749 513 762Q560 809 560 875V1076Q560 1142 513 1189Q504 1198 494 1206Q485 1210 477 1218Q460 1235 460 1260Q460 1285 477 1302T520 1320Q540 1320
556 1309Q578 1294 598 1274Q680 1192 680 1076V875Q680 768 610 690Q680 611 680 504V242Q680 126 598 44Q578 24 556 9Q540 -2 520 -2Q495 -2 478 15T460 58Q460 83 477 101Q485 108 494 113Q504 120 513 129Q560 176 560 242V504Q560 570 513 617Q500 630 486
639Q481 643 477 647Q460 664 460 690ZM189 689Q120 767 120 874V1075Q120 1191 202 1273Q224 1295 248 1311Q262 1320 280 1320Q305 1320 322 1302T340 1260Q340 1235 323 1218Q318 1213 314 1210Q300 1201 287 1188Q240 1141 240 1075V874Q240 808 287 761Q296
752 306 744Q315 740 323 733Q340 715 340 690Q340 665 323 647Q318 643 314 640Q300 631 287 618Q240 571 240 505V243Q240 177 287 130Q296 120 306 113Q315 109 323 101Q340 84 340 59Q340 34 323 17T280 -1Q260 -1 244 10Q222 25 202 45Q120 127 120 243V505Q120
612 189 689Z" />
<glyph unicode="9" glyph-name="nine" horiz-adv-x="800" d="M407 597T422 581Q440 564 440 539Q440 515 423 497T374 479Q275 487 202 560Q120 642 120 758V1060Q120 1176 202 1258T400 1340Q516 1340 598 1258T680 1060V260H679V259Q679 143 597 61T399 -21Q283
-21 201 61Q182 82 182 106Q182 131 199 148T242 166Q267 166 286 147Q333 100 399 100Q466 100 512 147T559 260H560V1060Q560 1126 513 1173T400 1220Q334 1220 287 1173T240 1060V758Q240 692 287 645Q329 603 386 599Q407 597 422 581Z" />
<glyph unicode=":" glyph-name="colon" horiz-adv-x="320" d="M193 360T216 337T240 280Q240 247 217 224T160 200Q127 200 104 223T80 280Q80 313 103 336T160 360Q193 360 216 337ZM193 970T216 947T240 890Q240 857 217 834T160 810Q127 810 104 833T80 890Q80
923 103 946T160 970Q193 970 216 947Z" />
<glyph unicode=";" glyph-name="semicolon" horiz-adv-x="320" d="M73 76Q79 100 101 113Q115 121 131 121Q138 121 146 119Q170 112 183 91Q191 76 191 60Q191 53 189 45L158 -71Q152 -94 131 -106Q116 -115 100 -115Q93 -115 85 -113Q61 -106 49 -85Q40 -71
40 -55Q40 -47 42 -39L73 76ZM192 970T215 947T239 890Q239 857 216 834T159 810Q126 810 103 833T79 890Q79 923 102 946T159 970Q192 970 215 947Z" />
<glyph unicode="&lt;" glyph-name="less" horiz-adv-x="600" d="M478 448Q496 430 496 406Q496 381 478 363Q461 345 436 345Q411 345 393 363L139 617Q121 635 121 660Q121 685 138 702L393 957Q410 974 435 974Q460 974 477 957Q495 939 495 914Q495 889 476
871L266 660L478 448Z" />
<glyph unicode="=" glyph-name="equal" horiz-adv-x="680" d="M397 722Q372 722 355 739T337 782Q337 807 354 824T397 842H797Q822 842 839 825T857 782Q857 757 840 740T797 722H397ZM397 399Q372 399 355 416T337 459Q337 484 354 501T397 519H797Q822 519
839 502T857 459Q857 434 840 417T797 399H397Z" />
<glyph unicode="&gt;" glyph-name="greater" horiz-adv-x="640" d="M138 867Q120 885 120 909Q120 934 138 952Q155 970 180 970Q205 970 223 952L477 698Q495 680 495 655Q495 630 478 613L223 358Q206 341 181 341Q156 341 139 358Q121 376 121 401Q121 426
140 444L350 655L138 867Z" />
<glyph unicode="?" glyph-name="question" horiz-adv-x="600" d="M319 339Q319 313 302 296T259 278Q234 278 217 295T199 339Q199 529 309 713T419 1029Q419 1105 373 1152T259 1199Q193 1199 143 1150Q125 1132 100 1132Q75 1132 58 1149T40 1192Q40 1216 58
1234Q143 1320 259 1320Q375 1320 457 1238T539 1030V1029Q539 848 429 663T319 339ZM293 160T316 137T340 80Q340 47 317 24T260 0Q227 0 204 23T180 80Q180 113 203 136T260 160Q293 160 316 137Z" />
<glyph unicode="@" glyph-name="at" horiz-adv-x="1440" d="M1000 300Q1000 275 983 258T940 240Q915 240 898 257T880 300V719Q880 785 833 832T720 879Q654 879 607 832T560 719V280Q560 214 607 167T720 120H960Q1074 130 1130 191Q1200 261 1200 360V719H1199Q1199
918 1059 1059Q918 1199 719 1199Q521 1199 381 1059Q240 918 240 719V281Q240 82 380 -58T720 -200H1020Q1045 -200 1062 -217T1080 -260Q1080 -285 1063 -302T1020 -320H720Q471 -319 296 -143Q120 32 120 280V719Q120 968 296 1144Q471 1319 719 1319H720Q968
1319 1144 1144Q1319 968 1319 719H1320V360Q1320 211 1215 106T960 0H720Q604 0 522 82T440 280V719Q440 835 522 917T720 999Q836 999 918 917T1000 719V300Z" />
<glyph unicode="A" glyph-name="A" horiz-adv-x="800" d="M400 397Q425 397 442 380T460 337Q460 312 443 295T400 277H201L140 50Q135 31 123 18Q105 0 80 0Q55 0 38 17T20 60Q20 67 21 73L341 1267Q345 1286 358 1301Q376 1319 400 1319Q425 1319 443 1301Q455
1286 459 1267L779 73Q780 67 780 60Q780 35 763 18T720 0Q695 0 678 18Q665 31 660 50L400 1024L233 397H400Z" />
<glyph unicode="B" glyph-name="B" horiz-adv-x="840" d="M160 1260Q160 1285 177 1302T220 1320Q245 1320 262 1303T280 1260V60Q280 35 263 18T220 0Q195 0 178 17T160 60V1260ZM720 278Q720 162 638 80Q565 6 464 -1Q435 -1 418 16T400 59Q400 84 418 101Q433
117 455 119Q512 124 553 165Q600 212 600 278V442Q600 508 553 555Q515 593 464 600Q435 600 418 618Q400 635 400 660V661Q400 686 418 704Q435 721 464 721Q515 728 553 766Q600 813 600 879V1041Q600 1107 553 1154Q512 1195 455 1200Q433 1202 418 1218Q400
1235 400 1260Q400 1285 417 1302T464 1320Q565 1313 638 1239Q720 1157 720 1041V879Q720 743 616 660Q720 578 720 442V278Z" />
<glyph unicode="C" glyph-name="C" horiz-adv-x="680" d="M516 150Q533 167 558 167Q583 167 600 150T618 107Q618 83 601 65Q516 -21 400 -21Q284 -21 202 61T120 259V1061Q120 1177 202 1259T400 1341Q516 1341 601 1255Q618 1237 618 1213Q618 1188 601 1171T558
1153Q533 1153 516 1171Q466 1220 400 1220Q333 1220 287 1173T240 1060V260Q240 194 286 147T400 100Q466 100 516 150Z" />
<glyph unicode="D" glyph-name="D" horiz-adv-x="800" d="M455 120Q512 125 553 166Q600 212 600 278V1040Q600 1106 553 1153T440 1200H280V60Q280 35 263 18T220 0Q195 0 178 17T160 60V1260Q160 1285 177 1302T220 1320H440Q556 1320 638 1238T720 1040V278Q720
162 638 81Q565 7 464 0Q435 0 418 17T400 60Q400 85 418 102Q433 118 455 120Z" />
<glyph unicode="E" glyph-name="E" horiz-adv-x="720" d="M160 1260Q160 1285 177 1302T220 1320H601Q626 1320 643 1303T661 1260Q661 1236 644 1218T601 1200H280V720H540Q565 720 582 703T600 660Q600 635 583 618T540 600H280V120H601Q626 120 643 103T661
60Q661 36 644 18T601 0H220Q195 0 178 17T160 60V1260Z" />
<glyph unicode="F" glyph-name="F" horiz-adv-x="680" d="M540 720Q565 720 582 703T600 660Q600 635 583 618T540 600H280V60Q280 35 263 18T220 0Q195 0 178 17T160 60V1260Q160 1285 177 1302T220 1320H601Q626 1320 643 1303T661 1260Q661 1236 644 1218T601
1200H280V720H540Z" />
<glyph unicode="G" glyph-name="G" horiz-adv-x="801" d="M601 1255Q618 1237 618 1213Q618 1188 601 1171T558 1153Q533 1153 516 1171Q466 1220 400 1220Q333 1220 287 1173T240 1060V280Q240 214 286 167T400 120H560V580H500Q475 580 458 598T440 640Q440
665 457 682T500 700H621Q646 700 663 683T680 640V60Q680 36 663 18T620 0H400Q284 0 202 81T120 279V1061Q120 1177 202 1259T400 1341Q516 1341 601 1255Z" />
<glyph unicode="H" glyph-name="H" horiz-adv-x="920" d="M160 1260Q160 1285 177 1302T220 1320Q245 1320 262 1303T280 1260V720H639V1260Q639 1285 656 1302T699 1320Q724 1320 741 1303T759 1260V60Q759 35 742 18T699 0Q674 0 657 17T639 60V600H280V60Q280
35 263 18T220 0Q195 0 178 17T160 60V1260Z" />
<glyph unicode="I" glyph-name="I" horiz-adv-x="440" d="M160 1260Q160 1285 177 1302T220 1320Q245 1320 262 1303T280 1260V60Q280 35 263 18T220 0Q195 0 178 17T160 60V1260Z" />
<glyph unicode="J" glyph-name="J" horiz-adv-x="500" d="M159 1200Q134 1200 117 1217T99 1260Q99 1285 116 1302T159 1320H299Q324 1320 341 1303T359 1260V239Q359 140 290 70T120 0Q94 0 77 18T59 60Q59 85 76 102T119 120Q172 122 204 154Q239 189 239 239V1200H159Z"
/>
<glyph unicode="K" glyph-name="K" horiz-adv-x="840" d="M160 1260Q160 1285 177 1302T220 1320Q245 1320 262 1303T280 1260V60Q280 35 263 18T220 0Q195 0 178 17T160 60V1260ZM643 1295T651 1303Q668 1320 693 1320Q718 1320 734 1303T751 1261Q751 1242 743
1227L486 650L743 94Q751 78 751 59Q751 34 735 17T693 0Q668 0 651 17Q643 25 639 33L368 619Q360 633 360 650Q360 667 368 681L639 1287Q643 1295 651 1303Z" />
<glyph unicode="L" glyph-name="L" horiz-adv-x="640" d="M160 1260Q160 1285 177 1302T220 1320Q245 1320 262 1303T280 1260V120H560Q585 120 602 103T620 60Q620 35 603 18T560 0H220Q195 0 178 17T160 60V1260Z" />
<glyph unicode="M" glyph-name="M" horiz-adv-x="1240" d="M971 1295T978 1303Q996 1320 1020 1320Q1045 1320 1062 1303T1080 1260V59Q1080 35 1063 18Q1045 0 1020 0Q996 0 978 18Q960 35 960 59V983L678 365Q668 342 646 331Q634 325 621 325Q611 325 601 329Q577
337 567 359L280 985V60Q280 35 263 18T220 0Q195 0 178 17T160 60V1260Q160 1284 177 1302T220 1320Q245 1320 263 1302Q269 1296 273 1289L621 531L966 1287Q971 1295 978 1303Z" />
<glyph unicode="N" glyph-name="N" horiz-adv-x="1000" d="M280 60Q280 35 263 18T220 0Q195 0 178 17T160 60V1261Q160 1286 177 1303T220 1321Q245 1321 263 1304Q269 1297 273 1290L720 329V1261Q720 1286 737 1303T780 1321Q805 1321 822 1304T840 1261V59Q840
35 823 18Q805 0 780 0Q755 0 738 18Q729 27 723 40L280 997V60Z" />
<glyph unicode="O" glyph-name="O" horiz-adv-x="800" d="M494 1205Q485 1209 478 1217Q460 1234 460 1259Q460 1284 477 1301T520 1319Q540 1319 556 1308Q578 1293 598 1273Q680 1191 680 1075V244Q680 128 598 46Q576 24 552 8Q538 -1 520 -1Q495 -1 478 17T460
59Q460 84 478 102Q482 106 486 109Q500 118 513 131Q560 178 560 244V1075Q560 1141 513 1188Q504 1197 494 1205ZM260 1320T280 1320Q305 1320 322 1302T340 1260Q340 1235 323 1218Q318 1213 313 1209Q299 1200 287 1188Q240 1141 240 1075V244Q240 178 287
131Q299 119 313 110Q318 107 322 103Q340 85 340 60Q340 35 322 18T280 0Q262 0 247 9Q223 25 202 46Q120 128 120 244V1075Q120 1191 202 1273Q223 1294 245 1309Q260 1320 280 1320Z" />
<glyph unicode="P" glyph-name="P" horiz-adv-x="800" d="M433 477T418 461Q400 444 400 419Q400 394 417 377T464 359Q565 366 638 440Q720 522 720 638V1039Q720 1155 638 1237T440 1319H220Q195 1319 178 1302T160 1259V59Q160 34 177 17T220 -1Q245 -1 262
16T280 59V1199H440Q506 1199 553 1152T600 1039V638Q600 572 553 525Q512 484 455 479Q433 477 418 461Z" />
<glyph unicode="Q" glyph-name="Q" horiz-adv-x="800" d="M673 193Q670 176 657 163Q639 145 614 145Q589 145 572 162T554 205Q554 212 555 219Q560 238 560 260V1060Q560 1126 513 1173T400 1220Q334 1220 287 1173T240 1060V260Q240 194 283 154T380 100L687
-7Q711 -15 722 -37Q728 -51 728 -64Q728 -73 725 -83Q717 -107 695 -118Q681 -124 668 -124Q658 -124 648 -121L327 -11Q250 16 202 62Q120 144 120 260V1060Q120 1176 202 1258T400 1340Q516 1340 598 1258T680 1060V260Q680 225 673 193Z" />
<glyph unicode="R" glyph-name="R" horiz-adv-x="840" d="M513 544Q541 552 565 575Q600 610 600 660V1080Q600 1130 565 1165T480 1200H280V60Q280 35 263 18T220 0Q195 0 178 17T160 60V1260Q160 1285 177 1302T220 1320H480Q579 1320 649 1250T720 1080V660Q720
561 650 491Q628 469 604 454L754 86Q760 73 760 60Q760 51 757 42Q749 18 727 7Q714 0 700 0Q691 0 682 2Q658 10 646 33L475 457Q468 470 468 486Q468 511 486 529Q498 541 513 544Z" />
<glyph unicode="S" glyph-name="S" horiz-adv-x="640" d="M97 72Q78 94 78 119Q80 144 98 161Q115 176 141 176Q166 174 186 153Q231 104 297 100H305Q366 100 412 142Q461 186 465 252V265Q465 430 264 652Q64 873 64 1058V1074Q71 1191 157 1269Q237 1340 342
1340H359Q475 1334 552 1248Q571 1226 571 1201Q569 1176 551 1160Q534 1144 511 1144Q483 1145 464 1167Q418 1216 352 1219H341Q282 1219 237 1179Q188 1134 184 1068V1059Q184 920 387 697Q586 477 586 268Q586 257 585 246Q578 129 492 51Q412 -21 306 -21H290Q174
-14 97 72Z" />
<glyph unicode="T" glyph-name="T" horiz-adv-x="600" d="M70 1200Q45 1200 28 1217T10 1260Q10 1285 27 1302T70 1320H510Q535 1320 552 1303T570 1260Q570 1235 553 1218T510 1200H350V60Q350 35 333 18T290 0Q265 0 248 17T230 60V1200H70Z" />
<glyph unicode="U" glyph-name="U" horiz-adv-x="840" d="M140 1259Q140 1284 157 1301T200 1319Q225 1319 242 1302T260 1259V260Q260 194 307 147T420 100Q486 100 533 147T580 260V1259Q580 1284 597 1301T640 1319Q665 1319 682 1302T700 1259V260Q700 144
618 62T420 -20Q304 -20 222 62T140 260V1259Z" />
<glyph unicode="V" glyph-name="V" horiz-adv-x="800" d="M20 1253T20 1260Q20 1285 37 1302T80 1320Q105 1320 123 1303Q136 1289 140 1270L400 295L660 1270Q664 1289 678 1303Q695 1320 720 1320Q745 1320 762 1303T780 1260Q780 1253 779 1247L459 52Q455
33 443 18Q425 0 400 0Q376 0 358 18Q345 33 341 52L21 1247Q20 1253 20 1260Z" />
<glyph unicode="W" glyph-name="W" horiz-adv-x="1200" d="M903 52Q900 33 886 18Q868 0 844 0Q819 0 802 18Q789 33 785 52L599 808L414 53Q410 33 396 18Q378 0 354 0Q329 0 312 18Q298 33 294 52L5 1247Q4 1253 4 1260Q4 1285 21 1302T64 1320Q89 1320 107
1303Q120 1289 124 1270L354 317L535 1060Q542 1088 558 1104T600 1120Q625 1120 641 1103T663 1060L844 317L1074 1270Q1078 1289 1092 1303Q1109 1320 1134 1320Q1159 1320 1176 1303T1194 1260Q1194 1253 1193 1247L903 52Z" />
<glyph unicode="X" glyph-name="X" horiz-adv-x="696" d="M343 806L561 1287Q573 1309 597 1317Q606 1320 615 1320Q629 1320 642 1313Q664 1302 672 1279Q675 1269 675 1260Q675 1246 668 1233L408 660L669 86Q675 73 675 60Q675 51 672 42Q664 18 642 7Q629
0 615 0Q606 0 597 3Q573 11 561 33L343 514L124 33Q113 11 89 3Q80 0 71 0Q57 0 44 7Q22 18 14 42Q11 51 11 60Q11 74 17 87L277 660L15 1237Q10 1248 10 1260Q10 1269 13 1279Q21 1302 43 1313Q56 1320 70 1320Q79 1320 88 1317Q112 1309 124 1287L343 806Z"
/>
<glyph unicode="Y" glyph-name="Y" horiz-adv-x="640" d="M23 1241Q21 1250 21 1260Q21 1285 38 1302T80 1320Q105 1320 123 1303Q133 1292 137 1280L321 632L504 1274Q508 1290 521 1303Q539 1320 563 1320Q588 1320 604 1303T621 1260Q621 1247 618 1236L380
412V60Q380 35 363 18T320 0Q296 0 278 17T260 60V413L23 1241Z" />
<glyph unicode="Z" glyph-name="Z" horiz-adv-x="675" d="M100 1200Q75 1200 58 1217T40 1260Q40 1285 57 1302T100 1320H560Q585 1320 602 1303T620 1260Q620 1248 616 1237L188 120H560Q585 120 602 103T620 60Q620 36 603 18T560 0H100Q76 0 59 18T41 60Q41
75 46 87L472 1200H100Z" />
<glyph unicode="[" glyph-name="bracketleft" horiz-adv-x="520" d="M160 1460Q160 1485 177 1502T220 1520H401Q426 1520 443 1503T461 1460Q461 1435 444 1418T401 1400H280V-80H400Q425 -80 442 -97T460 -140Q460 -165 443 -182T400 -200H220Q195 -200 178
-183T160 -140V1460Z" />
<glyph unicode="\" glyph-name="backslash" horiz-adv-x="520" d="M133 1291T121 1303Q103 1320 79 1320Q54 1320 37 1303T19 1260Q19 1249 22 1240L382 41Q386 28 396 18Q414 0 439 0Q464 0 481 18T499 60Q499 71 496 80L137 1276Q133 1291 121 1303Z" />
<glyph unicode="]" glyph-name="bracketright" horiz-adv-x="520" d="M361 -140Q361 -165 344 -182T301 -200H120Q95 -200 78 -183T60 -140Q60 -115 77 -98T120 -80H241V1400H121Q96 1400 79 1417T61 1460Q61 1485 78 1502T121 1520H301Q326 1520 343 1503T361
1460V-140Z" />
<glyph unicode="^" glyph-name="asciicircum" horiz-adv-x="800" d="M189 603Q171 585 147 585Q122 585 104 603Q86 620 86 645Q86 670 104 688L358 942Q376 960 401 960Q426 960 443 943L698 688Q715 671 715 646Q715 621 698 604Q680 586 655 586Q630 586 612
605L401 815L189 603Z" />
<glyph unicode="_" glyph-name="underscore" horiz-adv-x="720" d="M139 -120Q114 -120 97 -103T79 -60Q79 -35 96 -18T139 0H578Q603 0 620 -17T638 -60Q638 -85 621 -102T578 -120H139Z" />
<glyph unicode="`" glyph-name="grave" horiz-adv-x="240" d="M157 1311Q151 1335 129 1348Q115 1356 99 1356Q92 1356 84 1354Q60 1347 47 1326Q39 1311 39 1295Q39 1288 41 1280L72 1164Q78 1141 99 1129Q114 1120 130 1120Q137 1120 145 1122Q169 1129 181
1150Q190 1164 190 1180Q190 1188 188 1196L157 1311Z" />
<glyph unicode="a" glyph-name="a" horiz-adv-x="780" d="M400 0Q284 0 202 82T120 280V361Q120 477 202 559Q275 632 374 640Q405 640 422 622T440 580Q440 555 423 538Q407 522 386 520Q329 516 287 474Q240 427 240 361V280Q240 214 287 167T400 120H560V699Q559
765 513 812T399 859Q333 859 284 811Q267 793 242 793Q217 793 200 810T182 853Q182 877 199 895Q283 980 399 980Q515 980 597 898T680 699V60Q680 35 663 18T620 0H400Z" />
<glyph unicode="b" glyph-name="b" horiz-adv-x="840" d="M433 842T418 858Q400 875 400 900Q400 925 417 942T464 960Q565 953 638 879Q720 797 720 681V280Q720 164 638 82T440 0H220Q195 0 178 17T160 60V1260Q160 1285 177 1302T220 1320Q245 1320 262 1303T280
1260V120H440Q506 120 553 167T600 280V681Q600 747 553 794Q512 835 455 840Q433 842 418 858Z" />
<glyph unicode="c" glyph-name="c" horiz-adv-x="700" d="M513 147Q533 167 558 167Q583 167 600 150T618 107Q618 83 598 61Q516 -21 400 -21Q284 -21 202 61T120 259V701Q120 817 202 899T400 981Q516 981 598 899Q618 877 618 853Q618 828 601 811T558 793Q533
793 513 813Q466 860 400 860Q333 860 287 813T240 700V260Q240 194 286 147T400 100Q466 100 513 147Z" />
<glyph unicode="d" glyph-name="d" horiz-adv-x="840" d="M408 842T423 858Q441 875 441 900Q441 925 424 942T377 960Q276 953 203 879Q121 797 121 681V280Q121 164 203 82T401 0H621Q646 0 663 17T681 60V1260Q681 1285 664 1302T621 1320Q596 1320 579 1303T561
1260V120H401Q335 120 288 167T241 280V681Q241 747 288 794Q329 835 386 840Q408 842 423 858Z" />
<glyph unicode="e" glyph-name="e" horiz-adv-x="780" d="M420 400Q395 400 378 417T360 460Q360 485 377 502T420 520H560V700Q560 766 513 813T400 860Q334 860 287 813T240 700V260Q240 194 286 147T400 100Q466 100 513 147Q532 166 557 166Q582 166 599 149T617
106Q617 82 598 61Q516 -21 400 -21Q284 -21 202 61T120 259V700Q120 816 202 898T400 980Q516 980 598 898T680 700V460Q680 437 663 419Q645 401 620 400H420Z" />
<glyph unicode="f" glyph-name="f" horiz-adv-x="440" d="M240 960H359Q384 960 401 943T419 900Q419 875 402 858T359 840H240V60Q239 35 222 18T179 0Q155 0 138 17T120 60V840H119Q94 840 77 858T59 900Q59 925 76 942T119 960H120V1079Q120 1179 190 1249T360
1320Q385 1320 402 1303T420 1260Q420 1235 403 1218T360 1200Q309 1200 275 1165T240 1079V960Z" />
<glyph unicode="g" glyph-name="g" horiz-adv-x="840" d="M378 121Q406 118 423 102T440 61Q440 36 423 19T380 1H375Q275 9 202 82Q120 164 120 280V680Q120 796 202 878T400 960H620Q645 960 662 943T680 900V-40H679V-41Q679 -157 597 -239T399 -321Q283 -321
201 -239Q182 -218 182 -194Q182 -169 199 -152T242 -134Q267 -134 286 -153Q333 -200 399 -200Q466 -200 512 -153T559 -40H560V840H400Q334 840 287 793T240 680V280Q240 214 287 167Q326 128 378 121Z" />
<glyph unicode="h" glyph-name="h" horiz-adv-x="860" d="M280 839V60Q280 35 263 18T220 0Q195 0 178 17T160 60V1260Q160 1285 177 1302T220 1320Q245 1320 262 1303T280 1260V959H440Q556 959 638 877T720 679V60Q720 35 703 18T660 0Q635 0 618 17T600 60V679Q600
745 553 792T440 839H280Z" />
<glyph unicode="i" glyph-name="i" horiz-adv-x="440" d="M533 60Q533 35 516 18T473 0Q448 0 431 17T413 60V900Q413 925 430 942T473 960Q498 960 515 943T533 900V60ZM250 1280T273 1257T297 1200Q297 1167 274 1144T217 1120Q184 1120 161 1143T137 1200Q137
1233 160 1256T217 1280Q250 1280 273 1257Z" />
<glyph unicode="j" glyph-name="j" horiz-adv-x="440" d="M159 0V900Q159 925 176 942T219 960Q244 960 261 943T279 900V0Q279 -99 209 -169T39 -240Q14 -240 -3 -222T-21 -180Q-21 -155 -4 -138T39 -120Q89 -120 124 -85T159 0ZM258 1280T281 1257T305 1200Q305
1167 282 1144T225 1120Q192 1120 169 1143T145 1200Q145 1233 168 1256T225 1280Q258 1280 281 1257Z" />
<glyph unicode="k" glyph-name="k" horiz-adv-x="780" d="M691 74T691 60Q691 51 688 42Q680 18 658 7Q645 0 631 0Q622 0 613 3Q589 11 577 33L357 431Q344 455 344 478Q344 504 359 529L579 929Q583 936 590 943Q607 960 632 960Q657 960 674 943T691 900Q691
881 682 866L490 520Q479 499 479 478Q479 459 489 439L681 92Q691 74 691 60ZM160 1260Q160 1285 177 1302T220 1320Q245 1320 262 1303T280 1260V60Q280 35 263 18T220 0Q195 0 178 17T160 60V1260Z" />
<glyph unicode="l" glyph-name="l" horiz-adv-x="440" d="M160 1260Q160 1285 177 1302T220 1320Q245 1320 262 1303T280 1260V60Q280 35 263 18T220 0Q195 0 178 17T160 60V1260Z" />
<glyph unicode="m" glyph-name="m" horiz-adv-x="1220" d="M280 60Q280 35 263 18T220 0Q195 0 178 17T160 60V900Q160 925 177 942T220 960H800Q916 960 998 878T1080 680V60Q1080 35 1063 18T1020 0Q995 0 978 17T960 60V680Q960 746 913 793T800 840H680V60Q680
35 663 18T620 0Q595 0 578 17T560 60V840H280V60Z" />
<glyph unicode="n" glyph-name="n" horiz-adv-x="860" d="M280 60Q280 35 263 18T220 0Q195 0 178 17T160 60V900Q160 925 177 942T220 960H440Q556 960 638 878T720 680V60Q720 35 703 18T660 0Q635 0 618 17T600 60V680Q600 746 553 793T440 840H280V60Z" />
<glyph unicode="o" glyph-name="o" horiz-adv-x="800" d="M494 846Q485 850 478 858Q460 875 460 900Q460 925 477 942T520 960Q540 960 556 949Q578 934 598 914Q680 832 680 716V245Q680 129 598 47Q576 25 552 9Q538 0 520 0Q495 0 478 18T460 60Q460 85 478
103Q482 107 486 110Q500 119 513 132Q560 179 560 245V716Q560 782 513 829Q504 838 494 846ZM260 961T280 961Q305 961 322 943T340 901Q340 876 323 859Q318 854 313 850Q299 841 287 829Q240 782 240 716V245Q240 179 287 132Q299 120 313 111Q318 108 322
104Q340 86 340 61Q340 36 322 19T280 1Q262 1 247 10Q223 26 202 47Q120 129 120 245V716Q120 832 202 914Q223 935 245 950Q260 961 280 961Z" />
<glyph unicode="p" glyph-name="p" horiz-adv-x="840" d="M433 117T418 101Q400 84 400 59Q400 34 417 17T464 -1Q565 6 638 80Q720 162 720 278V679Q720 795 638 877T440 959H220Q195 959 178 942T160 899V-301Q160 -326 177 -343T220 -361Q245 -361 262 -344T280
-301V839H440Q506 839 553 792T600 679V278Q600 212 553 165Q512 124 455 119Q433 117 418 101Z" />
<glyph unicode="q" glyph-name="q" horiz-adv-x="840" d="M407 117T422 101Q440 84 440 59Q440 34 423 17T376 -1Q275 6 202 80Q120 162 120 278V679Q120 795 202 877T400 959H620Q645 959 662 942T680 899V-301Q680 -326 663 -343T620 -361Q595 -361 578 -344T560
-301V839H400Q334 839 287 792T240 679V278Q240 212 287 165Q328 124 385 119Q407 117 422 101Z" />
<glyph unicode="r" glyph-name="r" horiz-adv-x="480" d="M260 59Q260 34 243 17T200 -1Q175 -1 158 16T140 59V720Q140 819 210 889T380 960Q406 960 423 943T441 900Q441 875 424 858T380 840Q330 840 295 805T260 720V59Z" />
<glyph unicode="s" glyph-name="s" horiz-adv-x="700" d="M589 864T589 840Q588 815 570 798Q553 782 530 782Q502 783 481 805Q436 852 364 858Q352 859 342 859Q285 859 255 831Q208 798 206 730Q206 629 410 523Q614 418 614 240Q610 114 534 47T340 -21Q214
-17 134 68Q115 90 115 115Q116 140 134 157Q151 173 174 173Q202 172 224 148Q270 103 339 99H356Q414 99 449 124Q496 167 498 245V248Q498 357 298 460Q90 573 90 734Q94 851 176 916Q253 976 361 976H374Q490 971 569 887Q589 864 589 840Z" />
<glyph unicode="t" glyph-name="t" horiz-adv-x="520" d="M400 960Q425 960 442 943T460 900Q460 875 443 858T400 840H280V240Q280 190 315 155T400 120Q426 120 443 102T461 60Q461 35 444 18T400 0Q301 0 231 70T160 240V840H159Q134 840 117 858T99 900Q99
925 116 942T159 960H160V1139Q160 1164 178 1181T220 1199Q245 1199 262 1182T280 1139V960H400Z" />
<glyph unicode="u" glyph-name="u" horiz-adv-x="860" d="M580 900Q580 925 597 942T640 960Q665 960 682 943T700 900V60Q700 35 683 18T640 0H420Q304 0 222 82T140 280V900Q140 925 157 942T200 960Q225 960 242 943T260 900V280Q260 214 307 167T420 120H580V900Z" />
<glyph unicode="v" glyph-name="v" horiz-adv-x="680" d="M399 48Q394 31 383 18Q365 0 340 0Q316 0 298 18Q286 32 281 51L43 881Q40 890 40 900Q40 925 57 942T100 960Q125 960 143 943Q153 932 157 920L341 272L524 914Q528 930 541 943Q559 960 583 960Q608
960 624 943T641 900Q641 887 638 876L399 48Z" />
<glyph unicode="w" glyph-name="w" horiz-adv-x="1139" d="M379 48Q374 31 363 18Q345 0 320 0Q296 0 278 18Q266 32 261 51L23 881Q20 890 20 900Q20 925 37 942T80 960Q105 960 123 943Q133 932 137 920L321 272L504 913Q508 930 521 943Q538 960 563 960Q588
960 606 943Q616 932 620 920L804 272L987 914Q991 930 1004 943Q1022 960 1046 960Q1071 960 1087 943T1104 900Q1104 887 1101 876L862 48Q857 31 846 18Q828 0 803 0Q779 0 761 18Q749 32 744 51L562 684L379 48Z" />
<glyph unicode="x" glyph-name="x" horiz-adv-x="700" d="M420 479L633 92Q642 74 642 60Q642 51 639 42Q632 18 610 7Q597 0 583 0Q574 0 565 3Q541 11 529 33L352 355L176 36Q162 10 138 2Q129 -1 120 -1Q106 -1 93 6Q71 17 63 41Q60 50 60 59Q60 73 67 87L283
479L69 866Q59 881 59 900Q59 925 76 942T119 960Q144 960 162 943Q168 936 172 929L352 602L531 929Q535 936 542 943Q559 960 584 960Q609 960 626 943T644 900Q644 881 634 866L420 479Z" />
<glyph unicode="y" glyph-name="y" horiz-adv-x="840" d="M580 900Q580 925 597 942T640 960Q665 960 682 943T700 900V-100Q700 -199 630 -269T460 -340Q361 -340 291 -270Q265 -244 248 -214Q240 -198 240 -180Q240 -155 256 -138T298 -121Q323 -121 339 -136Q346
-144 350 -151Q360 -169 376 -185Q411 -220 460 -220Q510 -220 545 -185T580 -100V0H420Q304 0 222 82T140 280V900Q140 925 157 942T200 960Q225 960 242 943T260 900V280Q260 214 307 167T420 120H580V900Z" />
<glyph unicode="z" glyph-name="z" horiz-adv-x="640" d="M100 840Q75 840 58 857T40 900Q40 925 57 942T100 960H540Q565 960 582 943T600 900Q600 888 596 877L199 120H540Q565 120 582 103T600 60Q600 36 583 18T540 0H100Q76 0 58 18T40 60Q40 75 46 87L441 840H100Z" />
<glyph unicode="{" glyph-name="braceleft" horiz-adv-x="500" d="M446 1320T463 1303T481 1260Q481 1235 464 1218T420 1200Q370 1200 335 1165T300 1080V780Q300 681 230 611Q224 605 218 600Q224 595 230 590Q300 519 300 420V120Q300 70 335 35T420 0Q446
0 463 -17T481 -60Q481 -85 464 -102T420 -120Q321 -120 251 -50T180 120V420Q180 470 146 505T60 540Q35 540 18 558T0 600Q0 625 17 642T60 660Q111 660 145 695T180 780V1080Q180 1179 250 1249T420 1320Q446 1320 463 1303Z" />
<glyph unicode="|" glyph-name="bar" horiz-adv-x="440" d="M160 1420Q160 1445 177 1462T220 1480Q245 1480 262 1463T280 1420V-101Q280 -126 263 -143T220 -161Q195 -161 178 -144T160 -101V1420Z" />
<glyph unicode="}" glyph-name="braceright" horiz-adv-x="500" d="M55 -60T38 -43T20 0Q20 25 37 42T81 60Q131 60 166 95T201 180V480Q201 579 271 649Q277 655 283 660Q277 665 271 670Q201 741 201 840V1140Q201 1190 166 1225T81 1260Q55 1260 38 1277T20
1320Q20 1345 37 1362T81 1380Q180 1380 250 1310T321 1140V840Q321 790 355 755T441 720Q466 720 483 702T501 660Q501 635 484 618T441 600Q390 600 356 565T321 480V180Q321 81 251 11T81 -60Q55 -60 38 -43Z" />
<glyph unicode="~" glyph-name="asciitilde" horiz-adv-x="560" d="M99 600Q73 600 57 617T40 660Q40 685 58 701Q71 714 90 720Q129 734 173 734Q219 734 270 719Q319 704 363 704Q399 704 432 714Q445 719 459 720Q487 720 503 703T519 660Q519 635 501 618Q488
606 470 600Q430 585 385 585Q340 585 290 600Q240 615 196 615Q158 615 123 604Q112 600 99 600Z" />
</font>
</defs>
</svg>
